<svg width="85" height="85" viewBox="0 0 85 85" fill="none" xmlns="http://www.w3.org/2000/svg">
<ellipse cx="42.1554" cy="42.5" rx="42.1554" ry="42.5" fill="#00B074" fill-opacity="0.15"/>
<path d="M41.7135 23.9522C41.1197 23.9522 40.6532 23.4819 40.6532 22.8833V20.1897C40.6532 17.2823 38.3207 14.9308 35.4793 14.9308C34.0798 14.9308 32.8076 15.4866 31.7898 16.47C30.7719 17.4533 30.263 18.7788 30.263 20.1897V22.8833C30.263 23.4819 29.7965 23.9522 29.2028 23.9522C28.6091 23.9522 28.1426 23.4819 28.1426 22.8833V20.1897C28.1426 18.2229 28.9059 16.3844 30.263 14.9735C31.6625 13.5626 33.4861 12.793 35.4369 12.793C39.4658 12.793 42.7313 16.0852 42.7313 20.1469V22.8406C42.7737 23.4819 42.3072 23.9522 41.7135 23.9522Z" fill="#FFD497"/>
<path d="M58.3802 59.9953H27.464L22.3325 20.0615H56.2173L58.3802 59.9953Z" fill="#00B074"/>
<path d="M27.464 59.9953L20.1272 58.7127L12.748 59.9953L14.9533 20.0615H25.2587L27.464 59.9953Z" fill="#0A5239"/>
<path d="M40.9076 33.8287C36.8788 33.8287 33.6133 30.5365 33.6133 26.4747V23.7811C33.6133 23.1825 34.0798 22.7122 34.6735 22.7122C35.2672 22.7122 35.7337 23.1825 35.7337 23.7811V26.4747C35.7337 29.3821 38.0662 31.6909 40.9076 31.6909C43.749 31.6909 46.1239 29.3393 46.1239 26.4319V23.7383C46.1239 23.1397 46.5904 22.6694 47.1842 22.6694C47.7779 22.6694 48.2444 23.1397 48.2444 23.7383V26.4319C48.2444 30.5365 44.9789 33.8287 40.9076 33.8287Z" fill="white"/>
<path opacity="0.1" d="M42.8164 54.5225C42.8164 56.4892 43.3253 58.3705 44.2159 59.9952H58.4229L57.5323 43.577C56.4721 43.235 55.3695 43.064 54.2244 43.064C47.9055 43.064 42.8164 48.1946 42.8164 54.5225Z" fill="#0C1E5B"/>
<path d="M60.119 65.981C66.3961 65.981 71.4846 60.8509 71.4846 54.5225C71.4846 48.1941 66.3961 43.064 60.119 43.064C53.842 43.064 48.7534 48.1941 48.7534 54.5225C48.7534 60.8509 53.842 65.981 60.119 65.981Z" fill="#FF6966"/>
<path d="M58.9317 58.9691C58.5925 58.9691 58.2956 58.8409 58.0411 58.5843L54.4364 54.9501C53.9275 54.437 53.9275 53.6247 54.4364 53.1544C54.9453 52.6413 55.7511 52.6413 56.2176 53.1544L58.9317 55.8907L64.0208 50.76C64.5297 50.247 65.3355 50.247 65.802 50.76C66.3109 51.2731 66.3109 52.0855 65.802 52.5558L59.8223 58.5843C59.5679 58.8409 59.2286 58.9691 58.9317 58.9691Z" fill="white"/>
</svg>
