<svg width="85" height="85" viewBox="0 0 85 85" fill="none" xmlns="http://www.w3.org/2000/svg">
<ellipse cx="42.1554" cy="42.5" rx="42.1554" ry="42.5" fill="#00B074" fill-opacity="0.15"/>
<path d="M35.9735 19.8311L12.6567 29.4494L35.9735 39.0678L59.2902 29.4494L35.9735 19.8311Z" fill="#00B074"/>
<path d="M26.5097 23.7554L22.1211 25.5252L45.4378 35.182L49.7882 33.3737L26.5097 23.7554Z" fill="#F7C604"/>
<path d="M12.6567 29.4495V55.9577L35.9735 65.5761V39.0678L12.6567 29.4495Z" fill="#0A5239"/>
<path d="M59.2903 29.4495V55.9577L35.9736 65.5761V39.0678L59.2903 29.4495Z" fill="#00D68D"/>
<path opacity="0.1" d="M59.2901 42.9921C58.6031 42.8382 57.9162 42.7612 57.1912 42.7612C51.5433 42.7612 46.9639 47.3781 46.9639 53.0721C46.9639 55.7268 47.9561 58.1506 49.597 59.9589L59.2901 55.9576V42.9921Z" fill="#0C1E5B"/>
<path d="M45.4375 35.182V46.3009L49.7879 44.4926V33.3738L45.4375 35.182Z" fill="#F7C604"/>
<path d="M61.3508 62.6135C66.9992 62.6135 71.5781 57.9972 71.5781 52.3026C71.5781 46.608 66.9992 41.9917 61.3508 41.9917C55.7025 41.9917 51.1235 46.608 51.1235 52.3026C51.1235 57.9972 55.7025 62.6135 61.3508 62.6135Z" fill="#FF5B5B"/>
<path d="M60.2826 56.304C59.9773 56.304 59.7102 56.1886 59.4812 55.9577L56.2375 52.6875C55.7796 52.2258 55.7796 51.4948 56.2375 51.0716C56.6954 50.6099 57.4205 50.6099 57.8403 51.0716L60.2826 53.5339L64.862 48.9171C65.32 48.4554 66.045 48.4554 66.4648 48.9171C66.9227 49.3787 66.9227 50.1097 66.4648 50.533L61.084 55.9577C60.855 56.1886 60.5879 56.304 60.2826 56.304Z" fill="white"/>
<path d="M20.2128 52.3796L17.6941 47.1472L15.3281 50.2636L16.6256 50.8407V54.2263L18.7245 55.1882V51.764L20.2128 52.3796Z" fill="#F2F5F3"/>
</svg>
